# xmcd
#
# Track frame offsets:
# 150
# 21792
# 33469
# 48930
# 65607
# 83033
# 97645
# 108670
# 121509
# 138737
# 155418
#
# Disc length: 2345 seconds
#
#
# Revision: 11
# Processed by: cddbd v1.5.2PL0 Copyright (c) Steve Scherf et al.
# Submitted via: FreeRIP 2.951 
#
DISCID=8409270b
DTITLE=Luis Miguel - Mis Romances
DYEAR=2001
DGENRE=Latin
TTITLE0=Que Sabes Tu
TTITLE1=Tu Me Acostumbraste
TTITLE2=Perfidia
TTITLE3=Amor, Amor, Amor
TTITLE4=Como Duele
TTITLE5=Toda Una Vida
TTITLE6=El Tiempo Que Te Quede Libre
TTITLE7=Amorcito Corazon
TTITLE8=La Ultima Noche
TTITLE9=Volver
TTITLE10=Al Que Me Siga
EXTD=
EXTT0=
EXTT1=
EXTT2=
EXTT3=
EXTT4=
EXTT5=
EXTT6=
EXTT7=
EXTT8=
EXTT9=
EXTT10=
PLAYORDER=
